<mxfile host="app.diagrams.net" modified="2024-06-20T17:42:25.649Z" agent="Mozilla/5.0 (Macintosh; Intel Mac OS X 10_15_7) AppleWebKit/605.1.15 (KHTML, like Gecko) Version/16.5 Safari/605.1.15" etag="5gLZtHOq3MiAQkdTZjco" version="24.5.5" type="device">
  <diagram name="Страница — 1" id="i9g7tokoLIn1ezmBAr_r">
    <mxGraphModel dx="984" dy="1754" grid="1" gridSize="10" guides="1" tooltips="1" connect="1" arrows="1" fold="1" page="1" pageScale="1" pageWidth="827" pageHeight="1169" math="0" shadow="0">
      <root>
        <mxCell id="0" />
        <mxCell id="1" parent="0" />
        <mxCell id="Zf2B7JCEk5brwvJHuypl-1" value="User" style="swimlane;fontStyle=0;childLayout=stackLayout;horizontal=1;startSize=26;fillColor=none;horizontalStack=0;resizeParent=1;resizeParentMax=0;resizeLast=0;collapsible=1;marginBottom=0;whiteSpace=wrap;html=1;" parent="1" vertex="1">
          <mxGeometry x="40" y="610" width="140" height="134" as="geometry">
            <mxRectangle x="30" y="410" width="70" height="30" as="alternateBounds" />
          </mxGeometry>
        </mxCell>
        <mxCell id="Zf2B7JCEk5brwvJHuypl-3" value="+ Id" style="text;strokeColor=none;fillColor=none;align=left;verticalAlign=top;spacingLeft=4;spacingRight=4;overflow=hidden;rotatable=0;points=[[0,0.5],[1,0.5]];portConstraint=eastwest;whiteSpace=wrap;html=1;" parent="Zf2B7JCEk5brwvJHuypl-1" vertex="1">
          <mxGeometry y="26" width="140" height="26" as="geometry" />
        </mxCell>
        <mxCell id="Zf2B7JCEk5brwvJHuypl-4" value="+ Login" style="text;strokeColor=none;fillColor=none;align=left;verticalAlign=top;spacingLeft=4;spacingRight=4;overflow=hidden;rotatable=0;points=[[0,0.5],[1,0.5]];portConstraint=eastwest;whiteSpace=wrap;html=1;" parent="Zf2B7JCEk5brwvJHuypl-1" vertex="1">
          <mxGeometry y="52" width="140" height="26" as="geometry" />
        </mxCell>
        <mxCell id="Zf2B7JCEk5brwvJHuypl-6" value="+ Password" style="text;strokeColor=none;fillColor=none;align=left;verticalAlign=top;spacingLeft=4;spacingRight=4;overflow=hidden;rotatable=0;points=[[0,0.5],[1,0.5]];portConstraint=eastwest;whiteSpace=wrap;html=1;" parent="Zf2B7JCEk5brwvJHuypl-1" vertex="1">
          <mxGeometry y="78" width="140" height="26" as="geometry" />
        </mxCell>
        <mxCell id="Zf2B7JCEk5brwvJHuypl-7" value="+ Level" style="text;strokeColor=none;fillColor=none;align=left;verticalAlign=top;spacingLeft=4;spacingRight=4;overflow=hidden;rotatable=0;points=[[0,0.5],[1,0.5]];portConstraint=eastwest;whiteSpace=wrap;html=1;" parent="Zf2B7JCEk5brwvJHuypl-1" vertex="1">
          <mxGeometry y="104" width="140" height="30" as="geometry" />
        </mxCell>
        <mxCell id="Zf2B7JCEk5brwvJHuypl-8" value="Project" style="swimlane;fontStyle=0;childLayout=stackLayout;horizontal=1;startSize=26;fillColor=none;horizontalStack=0;resizeParent=1;resizeParentMax=0;resizeLast=0;collapsible=1;marginBottom=0;whiteSpace=wrap;html=1;" parent="1" vertex="1">
          <mxGeometry x="250" y="610" width="140" height="78" as="geometry">
            <mxRectangle x="30" y="410" width="70" height="30" as="alternateBounds" />
          </mxGeometry>
        </mxCell>
        <mxCell id="Zf2B7JCEk5brwvJHuypl-9" value="+ Id" style="text;strokeColor=none;fillColor=none;align=left;verticalAlign=top;spacingLeft=4;spacingRight=4;overflow=hidden;rotatable=0;points=[[0,0.5],[1,0.5]];portConstraint=eastwest;whiteSpace=wrap;html=1;" parent="Zf2B7JCEk5brwvJHuypl-8" vertex="1">
          <mxGeometry y="26" width="140" height="26" as="geometry" />
        </mxCell>
        <mxCell id="Zf2B7JCEk5brwvJHuypl-10" value="+ Name" style="text;strokeColor=none;fillColor=none;align=left;verticalAlign=top;spacingLeft=4;spacingRight=4;overflow=hidden;rotatable=0;points=[[0,0.5],[1,0.5]];portConstraint=eastwest;whiteSpace=wrap;html=1;" parent="Zf2B7JCEk5brwvJHuypl-8" vertex="1">
          <mxGeometry y="52" width="140" height="26" as="geometry" />
        </mxCell>
        <mxCell id="Zf2B7JCEk5brwvJHuypl-13" value="ProjectMember" style="swimlane;fontStyle=0;childLayout=stackLayout;horizontal=1;startSize=26;fillColor=none;horizontalStack=0;resizeParent=1;resizeParentMax=0;resizeLast=0;collapsible=1;marginBottom=0;whiteSpace=wrap;html=1;" parent="1" vertex="1">
          <mxGeometry x="515" y="610" width="140" height="104" as="geometry">
            <mxRectangle x="30" y="410" width="70" height="30" as="alternateBounds" />
          </mxGeometry>
        </mxCell>
        <mxCell id="Zf2B7JCEk5brwvJHuypl-14" value="+ UserId" style="text;strokeColor=none;fillColor=none;align=left;verticalAlign=top;spacingLeft=4;spacingRight=4;overflow=hidden;rotatable=0;points=[[0,0.5],[1,0.5]];portConstraint=eastwest;whiteSpace=wrap;html=1;" parent="Zf2B7JCEk5brwvJHuypl-13" vertex="1">
          <mxGeometry y="26" width="140" height="26" as="geometry" />
        </mxCell>
        <mxCell id="Zf2B7JCEk5brwvJHuypl-15" value="+ ProjectId" style="text;strokeColor=none;fillColor=none;align=left;verticalAlign=top;spacingLeft=4;spacingRight=4;overflow=hidden;rotatable=0;points=[[0,0.5],[1,0.5]];portConstraint=eastwest;whiteSpace=wrap;html=1;" parent="Zf2B7JCEk5brwvJHuypl-13" vertex="1">
          <mxGeometry y="52" width="140" height="26" as="geometry" />
        </mxCell>
        <mxCell id="Zf2B7JCEk5brwvJHuypl-16" value="+ Status" style="text;strokeColor=none;fillColor=none;align=left;verticalAlign=top;spacingLeft=4;spacingRight=4;overflow=hidden;rotatable=0;points=[[0,0.5],[1,0.5]];portConstraint=eastwest;whiteSpace=wrap;html=1;" parent="Zf2B7JCEk5brwvJHuypl-13" vertex="1">
          <mxGeometry y="78" width="140" height="26" as="geometry" />
        </mxCell>
        <mxCell id="Zf2B7JCEk5brwvJHuypl-23" value="Record" style="swimlane;fontStyle=0;childLayout=stackLayout;horizontal=1;startSize=26;fillColor=none;horizontalStack=0;resizeParent=1;resizeParentMax=0;resizeLast=0;collapsible=1;marginBottom=0;whiteSpace=wrap;html=1;" parent="1" vertex="1">
          <mxGeometry x="1090" y="610" width="140" height="208" as="geometry" />
        </mxCell>
        <mxCell id="Zf2B7JCEk5brwvJHuypl-24" value="+ Id" style="text;strokeColor=none;fillColor=none;align=left;verticalAlign=top;spacingLeft=4;spacingRight=4;overflow=hidden;rotatable=0;points=[[0,0.5],[1,0.5]];portConstraint=eastwest;whiteSpace=wrap;html=1;" parent="Zf2B7JCEk5brwvJHuypl-23" vertex="1">
          <mxGeometry y="26" width="140" height="26" as="geometry" />
        </mxCell>
        <mxCell id="Zf2B7JCEk5brwvJHuypl-25" value="+ UserId" style="text;strokeColor=none;fillColor=none;align=left;verticalAlign=top;spacingLeft=4;spacingRight=4;overflow=hidden;rotatable=0;points=[[0,0.5],[1,0.5]];portConstraint=eastwest;whiteSpace=wrap;html=1;" parent="Zf2B7JCEk5brwvJHuypl-23" vertex="1">
          <mxGeometry y="52" width="140" height="26" as="geometry" />
        </mxCell>
        <mxCell id="Zf2B7JCEk5brwvJHuypl-26" value="+ ProjectId" style="text;strokeColor=none;fillColor=none;align=left;verticalAlign=top;spacingLeft=4;spacingRight=4;overflow=hidden;rotatable=0;points=[[0,0.5],[1,0.5]];portConstraint=eastwest;whiteSpace=wrap;html=1;" parent="Zf2B7JCEk5brwvJHuypl-23" vertex="1">
          <mxGeometry y="78" width="140" height="26" as="geometry" />
        </mxCell>
        <mxCell id="Zf2B7JCEk5brwvJHuypl-27" value="+ CategoryId" style="text;strokeColor=none;fillColor=none;align=left;verticalAlign=top;spacingLeft=4;spacingRight=4;overflow=hidden;rotatable=0;points=[[0,0.5],[1,0.5]];portConstraint=eastwest;whiteSpace=wrap;html=1;" parent="Zf2B7JCEk5brwvJHuypl-23" vertex="1">
          <mxGeometry y="104" width="140" height="26" as="geometry" />
        </mxCell>
        <mxCell id="Zf2B7JCEk5brwvJHuypl-35" value="+ Sum" style="text;strokeColor=none;fillColor=none;align=left;verticalAlign=top;spacingLeft=4;spacingRight=4;overflow=hidden;rotatable=0;points=[[0,0.5],[1,0.5]];portConstraint=eastwest;whiteSpace=wrap;html=1;" parent="Zf2B7JCEk5brwvJHuypl-23" vertex="1">
          <mxGeometry y="130" width="140" height="26" as="geometry" />
        </mxCell>
        <mxCell id="Zf2B7JCEk5brwvJHuypl-28" value="+ Date" style="text;strokeColor=none;fillColor=none;align=left;verticalAlign=top;spacingLeft=4;spacingRight=4;overflow=hidden;rotatable=0;points=[[0,0.5],[1,0.5]];portConstraint=eastwest;whiteSpace=wrap;html=1;" parent="Zf2B7JCEk5brwvJHuypl-23" vertex="1">
          <mxGeometry y="156" width="140" height="26" as="geometry" />
        </mxCell>
        <mxCell id="Zf2B7JCEk5brwvJHuypl-29" value="+ Note" style="text;strokeColor=none;fillColor=none;align=left;verticalAlign=top;spacingLeft=4;spacingRight=4;overflow=hidden;rotatable=0;points=[[0,0.5],[1,0.5]];portConstraint=eastwest;whiteSpace=wrap;html=1;" parent="Zf2B7JCEk5brwvJHuypl-23" vertex="1">
          <mxGeometry y="182" width="140" height="26" as="geometry" />
        </mxCell>
        <mxCell id="Zf2B7JCEk5brwvJHuypl-30" value="Category" style="swimlane;fontStyle=0;childLayout=stackLayout;horizontal=1;startSize=26;fillColor=none;horizontalStack=0;resizeParent=1;resizeParentMax=0;resizeLast=0;collapsible=1;marginBottom=0;whiteSpace=wrap;html=1;" parent="1" vertex="1">
          <mxGeometry x="805" y="610" width="140" height="104" as="geometry" />
        </mxCell>
        <mxCell id="Zf2B7JCEk5brwvJHuypl-31" value="+ Id" style="text;strokeColor=none;fillColor=none;align=left;verticalAlign=top;spacingLeft=4;spacingRight=4;overflow=hidden;rotatable=0;points=[[0,0.5],[1,0.5]];portConstraint=eastwest;whiteSpace=wrap;html=1;" parent="Zf2B7JCEk5brwvJHuypl-30" vertex="1">
          <mxGeometry y="26" width="140" height="26" as="geometry" />
        </mxCell>
        <mxCell id="Zf2B7JCEk5brwvJHuypl-32" value="+ ProjectId" style="text;strokeColor=none;fillColor=none;align=left;verticalAlign=top;spacingLeft=4;spacingRight=4;overflow=hidden;rotatable=0;points=[[0,0.5],[1,0.5]];portConstraint=eastwest;whiteSpace=wrap;html=1;" parent="Zf2B7JCEk5brwvJHuypl-30" vertex="1">
          <mxGeometry y="52" width="140" height="26" as="geometry" />
        </mxCell>
        <mxCell id="Zf2B7JCEk5brwvJHuypl-33" value="+ Name" style="text;strokeColor=none;fillColor=none;align=left;verticalAlign=top;spacingLeft=4;spacingRight=4;overflow=hidden;rotatable=0;points=[[0,0.5],[1,0.5]];portConstraint=eastwest;whiteSpace=wrap;html=1;" parent="Zf2B7JCEk5brwvJHuypl-30" vertex="1">
          <mxGeometry y="78" width="140" height="26" as="geometry" />
        </mxCell>
        <mxCell id="Zf2B7JCEk5brwvJHuypl-36" value="UserRepository" style="swimlane;fontStyle=0;childLayout=stackLayout;horizontal=1;startSize=26;fillColor=none;horizontalStack=0;resizeParent=1;resizeParentMax=0;resizeLast=0;collapsible=1;marginBottom=0;whiteSpace=wrap;html=1;" parent="1" vertex="1">
          <mxGeometry x="40" y="330" width="140" height="156" as="geometry" />
        </mxCell>
        <mxCell id="Zf2B7JCEk5brwvJHuypl-37" value="+ GetUserById()" style="text;strokeColor=none;fillColor=none;align=left;verticalAlign=top;spacingLeft=4;spacingRight=4;overflow=hidden;rotatable=0;points=[[0,0.5],[1,0.5]];portConstraint=eastwest;whiteSpace=wrap;html=1;" parent="Zf2B7JCEk5brwvJHuypl-36" vertex="1">
          <mxGeometry y="26" width="140" height="26" as="geometry" />
        </mxCell>
        <mxCell id="Zf2B7JCEk5brwvJHuypl-38" value="+ CreateUser()" style="text;strokeColor=none;fillColor=none;align=left;verticalAlign=top;spacingLeft=4;spacingRight=4;overflow=hidden;rotatable=0;points=[[0,0.5],[1,0.5]];portConstraint=eastwest;whiteSpace=wrap;html=1;" parent="Zf2B7JCEk5brwvJHuypl-36" vertex="1">
          <mxGeometry y="52" width="140" height="26" as="geometry" />
        </mxCell>
        <mxCell id="Zf2B7JCEk5brwvJHuypl-39" value="+ UpdateUser()&lt;div&gt;&lt;br&gt;&lt;/div&gt;" style="text;strokeColor=none;fillColor=none;align=left;verticalAlign=top;spacingLeft=4;spacingRight=4;overflow=hidden;rotatable=0;points=[[0,0.5],[1,0.5]];portConstraint=eastwest;whiteSpace=wrap;html=1;" parent="Zf2B7JCEk5brwvJHuypl-36" vertex="1">
          <mxGeometry y="78" width="140" height="26" as="geometry" />
        </mxCell>
        <mxCell id="Zf2B7JCEk5brwvJHuypl-40" value="+ DeleteUser()&lt;div&gt;&lt;br&gt;&lt;/div&gt;" style="text;strokeColor=none;fillColor=none;align=left;verticalAlign=top;spacingLeft=4;spacingRight=4;overflow=hidden;rotatable=0;points=[[0,0.5],[1,0.5]];portConstraint=eastwest;whiteSpace=wrap;html=1;" parent="Zf2B7JCEk5brwvJHuypl-36" vertex="1">
          <mxGeometry y="104" width="140" height="26" as="geometry" />
        </mxCell>
        <mxCell id="Zf2B7JCEk5brwvJHuypl-42" value="+ GetUserByLogin()&lt;div&gt;&lt;br&gt;&lt;/div&gt;" style="text;strokeColor=none;fillColor=none;align=left;verticalAlign=top;spacingLeft=4;spacingRight=4;overflow=hidden;rotatable=0;points=[[0,0.5],[1,0.5]];portConstraint=eastwest;whiteSpace=wrap;html=1;" parent="Zf2B7JCEk5brwvJHuypl-36" vertex="1">
          <mxGeometry y="130" width="140" height="26" as="geometry" />
        </mxCell>
        <mxCell id="Zf2B7JCEk5brwvJHuypl-43" value="ProjectRepository" style="swimlane;fontStyle=0;childLayout=stackLayout;horizontal=1;startSize=26;fillColor=none;horizontalStack=0;resizeParent=1;resizeParentMax=0;resizeLast=0;collapsible=1;marginBottom=0;whiteSpace=wrap;html=1;" parent="1" vertex="1">
          <mxGeometry x="400" y="330" width="140" height="130" as="geometry" />
        </mxCell>
        <mxCell id="Zf2B7JCEk5brwvJHuypl-45" value="+ GetProjectById()" style="text;strokeColor=none;fillColor=none;align=left;verticalAlign=top;spacingLeft=4;spacingRight=4;overflow=hidden;rotatable=0;points=[[0,0.5],[1,0.5]];portConstraint=eastwest;whiteSpace=wrap;html=1;" parent="Zf2B7JCEk5brwvJHuypl-43" vertex="1">
          <mxGeometry y="26" width="140" height="26" as="geometry" />
        </mxCell>
        <mxCell id="Zf2B7JCEk5brwvJHuypl-46" value="+ CreateProject()" style="text;strokeColor=none;fillColor=none;align=left;verticalAlign=top;spacingLeft=4;spacingRight=4;overflow=hidden;rotatable=0;points=[[0,0.5],[1,0.5]];portConstraint=eastwest;whiteSpace=wrap;html=1;" parent="Zf2B7JCEk5brwvJHuypl-43" vertex="1">
          <mxGeometry y="52" width="140" height="26" as="geometry" />
        </mxCell>
        <mxCell id="Zf2B7JCEk5brwvJHuypl-47" value="+ UpdateProject()&lt;div&gt;&lt;br&gt;&lt;/div&gt;" style="text;strokeColor=none;fillColor=none;align=left;verticalAlign=top;spacingLeft=4;spacingRight=4;overflow=hidden;rotatable=0;points=[[0,0.5],[1,0.5]];portConstraint=eastwest;whiteSpace=wrap;html=1;" parent="Zf2B7JCEk5brwvJHuypl-43" vertex="1">
          <mxGeometry y="78" width="140" height="26" as="geometry" />
        </mxCell>
        <mxCell id="Zf2B7JCEk5brwvJHuypl-48" value="+ DeleteProject()&lt;div&gt;&lt;br&gt;&lt;/div&gt;" style="text;strokeColor=none;fillColor=none;align=left;verticalAlign=top;spacingLeft=4;spacingRight=4;overflow=hidden;rotatable=0;points=[[0,0.5],[1,0.5]];portConstraint=eastwest;whiteSpace=wrap;html=1;" parent="Zf2B7JCEk5brwvJHuypl-43" vertex="1">
          <mxGeometry y="104" width="140" height="26" as="geometry" />
        </mxCell>
        <mxCell id="Zf2B7JCEk5brwvJHuypl-50" value="ProjecMembertRepository" style="swimlane;fontStyle=0;childLayout=stackLayout;horizontal=1;startSize=26;fillColor=none;horizontalStack=0;resizeParent=1;resizeParentMax=0;resizeLast=0;collapsible=1;marginBottom=0;whiteSpace=wrap;html=1;" parent="1" vertex="1">
          <mxGeometry x="570" y="330" width="210" height="156" as="geometry" />
        </mxCell>
        <mxCell id="Zf2B7JCEk5brwvJHuypl-52" value="+ GetAllProjectMembersByUserId()" style="text;strokeColor=none;fillColor=none;align=left;verticalAlign=top;spacingLeft=4;spacingRight=4;overflow=hidden;rotatable=0;points=[[0,0.5],[1,0.5]];portConstraint=eastwest;whiteSpace=wrap;html=1;" parent="Zf2B7JCEk5brwvJHuypl-50" vertex="1">
          <mxGeometry y="26" width="210" height="26" as="geometry" />
        </mxCell>
        <mxCell id="Zf2B7JCEk5brwvJHuypl-57" value="+ GetAllProjectMembersByProjectId()" style="text;strokeColor=none;fillColor=none;align=left;verticalAlign=top;spacingLeft=4;spacingRight=4;overflow=hidden;rotatable=0;points=[[0,0.5],[1,0.5]];portConstraint=eastwest;whiteSpace=wrap;html=1;" parent="Zf2B7JCEk5brwvJHuypl-50" vertex="1">
          <mxGeometry y="52" width="210" height="26" as="geometry" />
        </mxCell>
        <mxCell id="Zf2B7JCEk5brwvJHuypl-53" value="+ CreateProjectMember()" style="text;strokeColor=none;fillColor=none;align=left;verticalAlign=top;spacingLeft=4;spacingRight=4;overflow=hidden;rotatable=0;points=[[0,0.5],[1,0.5]];portConstraint=eastwest;whiteSpace=wrap;html=1;" parent="Zf2B7JCEk5brwvJHuypl-50" vertex="1">
          <mxGeometry y="78" width="210" height="26" as="geometry" />
        </mxCell>
        <mxCell id="Zf2B7JCEk5brwvJHuypl-54" value="+ UpdateProjectMember()&lt;div&gt;&lt;br&gt;&lt;/div&gt;" style="text;strokeColor=none;fillColor=none;align=left;verticalAlign=top;spacingLeft=4;spacingRight=4;overflow=hidden;rotatable=0;points=[[0,0.5],[1,0.5]];portConstraint=eastwest;whiteSpace=wrap;html=1;" parent="Zf2B7JCEk5brwvJHuypl-50" vertex="1">
          <mxGeometry y="104" width="210" height="26" as="geometry" />
        </mxCell>
        <mxCell id="Zf2B7JCEk5brwvJHuypl-55" value="+ DeleteProjectMember()&lt;div&gt;&lt;br&gt;&lt;/div&gt;" style="text;strokeColor=none;fillColor=none;align=left;verticalAlign=top;spacingLeft=4;spacingRight=4;overflow=hidden;rotatable=0;points=[[0,0.5],[1,0.5]];portConstraint=eastwest;whiteSpace=wrap;html=1;" parent="Zf2B7JCEk5brwvJHuypl-50" vertex="1">
          <mxGeometry y="130" width="210" height="26" as="geometry" />
        </mxCell>
        <mxCell id="Zf2B7JCEk5brwvJHuypl-69" value="CategoryRepository" style="swimlane;fontStyle=0;childLayout=stackLayout;horizontal=1;startSize=26;fillColor=none;horizontalStack=0;resizeParent=1;resizeParentMax=0;resizeLast=0;collapsible=1;marginBottom=0;whiteSpace=wrap;html=1;" parent="1" vertex="1">
          <mxGeometry x="830" y="330" width="190" height="156" as="geometry" />
        </mxCell>
        <mxCell id="Zf2B7JCEk5brwvJHuypl-70" value="+ GetAllCategoriesByProjectId()&lt;div&gt;&lt;br&gt;&lt;/div&gt;" style="text;strokeColor=none;fillColor=none;align=left;verticalAlign=top;spacingLeft=4;spacingRight=4;overflow=hidden;rotatable=0;points=[[0,0.5],[1,0.5]];portConstraint=eastwest;whiteSpace=wrap;html=1;" parent="Zf2B7JCEk5brwvJHuypl-69" vertex="1">
          <mxGeometry y="26" width="190" height="26" as="geometry" />
        </mxCell>
        <mxCell id="Zf2B7JCEk5brwvJHuypl-71" value="+ GetCategoryById()" style="text;strokeColor=none;fillColor=none;align=left;verticalAlign=top;spacingLeft=4;spacingRight=4;overflow=hidden;rotatable=0;points=[[0,0.5],[1,0.5]];portConstraint=eastwest;whiteSpace=wrap;html=1;" parent="Zf2B7JCEk5brwvJHuypl-69" vertex="1">
          <mxGeometry y="52" width="190" height="26" as="geometry" />
        </mxCell>
        <mxCell id="Zf2B7JCEk5brwvJHuypl-72" value="+ CreateCategory()" style="text;strokeColor=none;fillColor=none;align=left;verticalAlign=top;spacingLeft=4;spacingRight=4;overflow=hidden;rotatable=0;points=[[0,0.5],[1,0.5]];portConstraint=eastwest;whiteSpace=wrap;html=1;" parent="Zf2B7JCEk5brwvJHuypl-69" vertex="1">
          <mxGeometry y="78" width="190" height="26" as="geometry" />
        </mxCell>
        <mxCell id="Zf2B7JCEk5brwvJHuypl-73" value="+ UpdateCategory()&lt;div&gt;&lt;br&gt;&lt;/div&gt;" style="text;strokeColor=none;fillColor=none;align=left;verticalAlign=top;spacingLeft=4;spacingRight=4;overflow=hidden;rotatable=0;points=[[0,0.5],[1,0.5]];portConstraint=eastwest;whiteSpace=wrap;html=1;" parent="Zf2B7JCEk5brwvJHuypl-69" vertex="1">
          <mxGeometry y="104" width="190" height="26" as="geometry" />
        </mxCell>
        <mxCell id="Zf2B7JCEk5brwvJHuypl-74" value="+ DeleteCategory()&lt;div&gt;&lt;br&gt;&lt;/div&gt;" style="text;strokeColor=none;fillColor=none;align=left;verticalAlign=top;spacingLeft=4;spacingRight=4;overflow=hidden;rotatable=0;points=[[0,0.5],[1,0.5]];portConstraint=eastwest;whiteSpace=wrap;html=1;" parent="Zf2B7JCEk5brwvJHuypl-69" vertex="1">
          <mxGeometry y="130" width="190" height="26" as="geometry" />
        </mxCell>
        <mxCell id="Zf2B7JCEk5brwvJHuypl-76" value="RecordRepository" style="swimlane;fontStyle=0;childLayout=stackLayout;horizontal=1;startSize=26;fillColor=none;horizontalStack=0;resizeParent=1;resizeParentMax=0;resizeLast=0;collapsible=1;marginBottom=0;whiteSpace=wrap;html=1;" parent="1" vertex="1">
          <mxGeometry x="1060" y="330" width="200" height="156" as="geometry" />
        </mxCell>
        <mxCell id="Zf2B7JCEk5brwvJHuypl-77" value="+ GetAllRecordsByProjectId()&lt;div&gt;&lt;br&gt;&lt;/div&gt;" style="text;strokeColor=none;fillColor=none;align=left;verticalAlign=top;spacingLeft=4;spacingRight=4;overflow=hidden;rotatable=0;points=[[0,0.5],[1,0.5]];portConstraint=eastwest;whiteSpace=wrap;html=1;" parent="Zf2B7JCEk5brwvJHuypl-76" vertex="1">
          <mxGeometry y="26" width="200" height="26" as="geometry" />
        </mxCell>
        <mxCell id="Zf2B7JCEk5brwvJHuypl-78" value="+ GetAllRecordsByFilter()" style="text;strokeColor=none;fillColor=none;align=left;verticalAlign=top;spacingLeft=4;spacingRight=4;overflow=hidden;rotatable=0;points=[[0,0.5],[1,0.5]];portConstraint=eastwest;whiteSpace=wrap;html=1;" parent="Zf2B7JCEk5brwvJHuypl-76" vertex="1">
          <mxGeometry y="52" width="200" height="26" as="geometry" />
        </mxCell>
        <mxCell id="Zf2B7JCEk5brwvJHuypl-79" value="+ CreateRecord()" style="text;strokeColor=none;fillColor=none;align=left;verticalAlign=top;spacingLeft=4;spacingRight=4;overflow=hidden;rotatable=0;points=[[0,0.5],[1,0.5]];portConstraint=eastwest;whiteSpace=wrap;html=1;" parent="Zf2B7JCEk5brwvJHuypl-76" vertex="1">
          <mxGeometry y="78" width="200" height="26" as="geometry" />
        </mxCell>
        <mxCell id="Zf2B7JCEk5brwvJHuypl-80" value="+ UpdateRecord()&lt;div&gt;&lt;br&gt;&lt;/div&gt;" style="text;strokeColor=none;fillColor=none;align=left;verticalAlign=top;spacingLeft=4;spacingRight=4;overflow=hidden;rotatable=0;points=[[0,0.5],[1,0.5]];portConstraint=eastwest;whiteSpace=wrap;html=1;" parent="Zf2B7JCEk5brwvJHuypl-76" vertex="1">
          <mxGeometry y="104" width="200" height="26" as="geometry" />
        </mxCell>
        <mxCell id="Zf2B7JCEk5brwvJHuypl-81" value="+ DeleteRecord()&lt;div&gt;&lt;br&gt;&lt;/div&gt;" style="text;strokeColor=none;fillColor=none;align=left;verticalAlign=top;spacingLeft=4;spacingRight=4;overflow=hidden;rotatable=0;points=[[0,0.5],[1,0.5]];portConstraint=eastwest;whiteSpace=wrap;html=1;" parent="Zf2B7JCEk5brwvJHuypl-76" vertex="1">
          <mxGeometry y="130" width="200" height="26" as="geometry" />
        </mxCell>
        <mxCell id="Zf2B7JCEk5brwvJHuypl-84" value="&amp;lt;&amp;lt;Interface&amp;gt;&amp;gt;&lt;div&gt;IUserRepository&lt;/div&gt;" style="swimlane;fontStyle=0;childLayout=stackLayout;horizontal=1;startSize=40;fillColor=none;horizontalStack=0;resizeParent=1;resizeParentMax=0;resizeLast=0;collapsible=1;marginBottom=0;whiteSpace=wrap;html=1;" parent="1" vertex="1">
          <mxGeometry x="40" y="-40" width="140" height="170" as="geometry" />
        </mxCell>
        <mxCell id="Zf2B7JCEk5brwvJHuypl-85" value="+ GetUserById()" style="text;strokeColor=none;fillColor=none;align=left;verticalAlign=top;spacingLeft=4;spacingRight=4;overflow=hidden;rotatable=0;points=[[0,0.5],[1,0.5]];portConstraint=eastwest;whiteSpace=wrap;html=1;" parent="Zf2B7JCEk5brwvJHuypl-84" vertex="1">
          <mxGeometry y="40" width="140" height="26" as="geometry" />
        </mxCell>
        <mxCell id="Zf2B7JCEk5brwvJHuypl-86" value="+ CreateUser()" style="text;strokeColor=none;fillColor=none;align=left;verticalAlign=top;spacingLeft=4;spacingRight=4;overflow=hidden;rotatable=0;points=[[0,0.5],[1,0.5]];portConstraint=eastwest;whiteSpace=wrap;html=1;" parent="Zf2B7JCEk5brwvJHuypl-84" vertex="1">
          <mxGeometry y="66" width="140" height="26" as="geometry" />
        </mxCell>
        <mxCell id="Zf2B7JCEk5brwvJHuypl-87" value="+ UpdateUser()&lt;div&gt;&lt;br&gt;&lt;/div&gt;" style="text;strokeColor=none;fillColor=none;align=left;verticalAlign=top;spacingLeft=4;spacingRight=4;overflow=hidden;rotatable=0;points=[[0,0.5],[1,0.5]];portConstraint=eastwest;whiteSpace=wrap;html=1;" parent="Zf2B7JCEk5brwvJHuypl-84" vertex="1">
          <mxGeometry y="92" width="140" height="26" as="geometry" />
        </mxCell>
        <mxCell id="Zf2B7JCEk5brwvJHuypl-88" value="+ DeleteUser()&lt;div&gt;&lt;br&gt;&lt;/div&gt;" style="text;strokeColor=none;fillColor=none;align=left;verticalAlign=top;spacingLeft=4;spacingRight=4;overflow=hidden;rotatable=0;points=[[0,0.5],[1,0.5]];portConstraint=eastwest;whiteSpace=wrap;html=1;" parent="Zf2B7JCEk5brwvJHuypl-84" vertex="1">
          <mxGeometry y="118" width="140" height="26" as="geometry" />
        </mxCell>
        <mxCell id="Zf2B7JCEk5brwvJHuypl-89" value="+ GetUserByLogin()&lt;div&gt;&lt;br&gt;&lt;/div&gt;" style="text;strokeColor=none;fillColor=none;align=left;verticalAlign=top;spacingLeft=4;spacingRight=4;overflow=hidden;rotatable=0;points=[[0,0.5],[1,0.5]];portConstraint=eastwest;whiteSpace=wrap;html=1;" parent="Zf2B7JCEk5brwvJHuypl-84" vertex="1">
          <mxGeometry y="144" width="140" height="26" as="geometry" />
        </mxCell>
        <mxCell id="Zf2B7JCEk5brwvJHuypl-90" value="&amp;lt;&amp;lt;Interface&amp;gt;&amp;gt;&lt;div&gt;IProjectRepository&lt;/div&gt;" style="swimlane;fontStyle=0;childLayout=stackLayout;horizontal=1;startSize=40;fillColor=none;horizontalStack=0;resizeParent=1;resizeParentMax=0;resizeLast=0;collapsible=1;marginBottom=0;whiteSpace=wrap;html=1;" parent="1" vertex="1">
          <mxGeometry x="400" y="-40" width="140" height="144" as="geometry" />
        </mxCell>
        <mxCell id="Zf2B7JCEk5brwvJHuypl-91" value="+ GetProjectById()" style="text;strokeColor=none;fillColor=none;align=left;verticalAlign=top;spacingLeft=4;spacingRight=4;overflow=hidden;rotatable=0;points=[[0,0.5],[1,0.5]];portConstraint=eastwest;whiteSpace=wrap;html=1;" parent="Zf2B7JCEk5brwvJHuypl-90" vertex="1">
          <mxGeometry y="40" width="140" height="26" as="geometry" />
        </mxCell>
        <mxCell id="Zf2B7JCEk5brwvJHuypl-92" value="+ CreateProject()" style="text;strokeColor=none;fillColor=none;align=left;verticalAlign=top;spacingLeft=4;spacingRight=4;overflow=hidden;rotatable=0;points=[[0,0.5],[1,0.5]];portConstraint=eastwest;whiteSpace=wrap;html=1;" parent="Zf2B7JCEk5brwvJHuypl-90" vertex="1">
          <mxGeometry y="66" width="140" height="26" as="geometry" />
        </mxCell>
        <mxCell id="Zf2B7JCEk5brwvJHuypl-93" value="+ UpdateProject()&lt;div&gt;&lt;br&gt;&lt;/div&gt;" style="text;strokeColor=none;fillColor=none;align=left;verticalAlign=top;spacingLeft=4;spacingRight=4;overflow=hidden;rotatable=0;points=[[0,0.5],[1,0.5]];portConstraint=eastwest;whiteSpace=wrap;html=1;" parent="Zf2B7JCEk5brwvJHuypl-90" vertex="1">
          <mxGeometry y="92" width="140" height="26" as="geometry" />
        </mxCell>
        <mxCell id="Zf2B7JCEk5brwvJHuypl-94" value="+ DeleteProject()&lt;div&gt;&lt;br&gt;&lt;/div&gt;" style="text;strokeColor=none;fillColor=none;align=left;verticalAlign=top;spacingLeft=4;spacingRight=4;overflow=hidden;rotatable=0;points=[[0,0.5],[1,0.5]];portConstraint=eastwest;whiteSpace=wrap;html=1;" parent="Zf2B7JCEk5brwvJHuypl-90" vertex="1">
          <mxGeometry y="118" width="140" height="26" as="geometry" />
        </mxCell>
        <mxCell id="Zf2B7JCEk5brwvJHuypl-95" value="&amp;lt;&amp;lt;Interface&amp;gt;&amp;gt;&lt;div&gt;IProjecMembertRepository&lt;/div&gt;" style="swimlane;fontStyle=0;childLayout=stackLayout;horizontal=1;startSize=40;fillColor=none;horizontalStack=0;resizeParent=1;resizeParentMax=0;resizeLast=0;collapsible=1;marginBottom=0;whiteSpace=wrap;html=1;" parent="1" vertex="1">
          <mxGeometry x="570" y="-40" width="210" height="170" as="geometry" />
        </mxCell>
        <mxCell id="Zf2B7JCEk5brwvJHuypl-96" value="+ GetAllProjectMembersByUserId()" style="text;strokeColor=none;fillColor=none;align=left;verticalAlign=top;spacingLeft=4;spacingRight=4;overflow=hidden;rotatable=0;points=[[0,0.5],[1,0.5]];portConstraint=eastwest;whiteSpace=wrap;html=1;" parent="Zf2B7JCEk5brwvJHuypl-95" vertex="1">
          <mxGeometry y="40" width="210" height="26" as="geometry" />
        </mxCell>
        <mxCell id="Zf2B7JCEk5brwvJHuypl-97" value="+ GetAllProjectMembersByProjectId()" style="text;strokeColor=none;fillColor=none;align=left;verticalAlign=top;spacingLeft=4;spacingRight=4;overflow=hidden;rotatable=0;points=[[0,0.5],[1,0.5]];portConstraint=eastwest;whiteSpace=wrap;html=1;" parent="Zf2B7JCEk5brwvJHuypl-95" vertex="1">
          <mxGeometry y="66" width="210" height="26" as="geometry" />
        </mxCell>
        <mxCell id="Zf2B7JCEk5brwvJHuypl-98" value="+ CreateProjectMember()" style="text;strokeColor=none;fillColor=none;align=left;verticalAlign=top;spacingLeft=4;spacingRight=4;overflow=hidden;rotatable=0;points=[[0,0.5],[1,0.5]];portConstraint=eastwest;whiteSpace=wrap;html=1;" parent="Zf2B7JCEk5brwvJHuypl-95" vertex="1">
          <mxGeometry y="92" width="210" height="26" as="geometry" />
        </mxCell>
        <mxCell id="Zf2B7JCEk5brwvJHuypl-99" value="+ UpdateProjectMember()&lt;div&gt;&lt;br&gt;&lt;/div&gt;" style="text;strokeColor=none;fillColor=none;align=left;verticalAlign=top;spacingLeft=4;spacingRight=4;overflow=hidden;rotatable=0;points=[[0,0.5],[1,0.5]];portConstraint=eastwest;whiteSpace=wrap;html=1;" parent="Zf2B7JCEk5brwvJHuypl-95" vertex="1">
          <mxGeometry y="118" width="210" height="26" as="geometry" />
        </mxCell>
        <mxCell id="Zf2B7JCEk5brwvJHuypl-100" value="+ DeleteProjectMember()&lt;div&gt;&lt;br&gt;&lt;/div&gt;" style="text;strokeColor=none;fillColor=none;align=left;verticalAlign=top;spacingLeft=4;spacingRight=4;overflow=hidden;rotatable=0;points=[[0,0.5],[1,0.5]];portConstraint=eastwest;whiteSpace=wrap;html=1;" parent="Zf2B7JCEk5brwvJHuypl-95" vertex="1">
          <mxGeometry y="144" width="210" height="26" as="geometry" />
        </mxCell>
        <mxCell id="Zf2B7JCEk5brwvJHuypl-101" value="&amp;lt;&amp;lt;Interface&amp;gt;&amp;gt;&lt;div&gt;ICategoryRepository&lt;/div&gt;" style="swimlane;fontStyle=0;childLayout=stackLayout;horizontal=1;startSize=40;fillColor=none;horizontalStack=0;resizeParent=1;resizeParentMax=0;resizeLast=0;collapsible=1;marginBottom=0;whiteSpace=wrap;html=1;" parent="1" vertex="1">
          <mxGeometry x="827" y="-40" width="190" height="170" as="geometry" />
        </mxCell>
        <mxCell id="Zf2B7JCEk5brwvJHuypl-102" value="+ GetAllCategoriesByProjectId()&lt;div&gt;&lt;br&gt;&lt;/div&gt;" style="text;strokeColor=none;fillColor=none;align=left;verticalAlign=top;spacingLeft=4;spacingRight=4;overflow=hidden;rotatable=0;points=[[0,0.5],[1,0.5]];portConstraint=eastwest;whiteSpace=wrap;html=1;" parent="Zf2B7JCEk5brwvJHuypl-101" vertex="1">
          <mxGeometry y="40" width="190" height="26" as="geometry" />
        </mxCell>
        <mxCell id="Zf2B7JCEk5brwvJHuypl-103" value="+ GetCategoryById()" style="text;strokeColor=none;fillColor=none;align=left;verticalAlign=top;spacingLeft=4;spacingRight=4;overflow=hidden;rotatable=0;points=[[0,0.5],[1,0.5]];portConstraint=eastwest;whiteSpace=wrap;html=1;" parent="Zf2B7JCEk5brwvJHuypl-101" vertex="1">
          <mxGeometry y="66" width="190" height="26" as="geometry" />
        </mxCell>
        <mxCell id="Zf2B7JCEk5brwvJHuypl-104" value="+ CreateCategory()" style="text;strokeColor=none;fillColor=none;align=left;verticalAlign=top;spacingLeft=4;spacingRight=4;overflow=hidden;rotatable=0;points=[[0,0.5],[1,0.5]];portConstraint=eastwest;whiteSpace=wrap;html=1;" parent="Zf2B7JCEk5brwvJHuypl-101" vertex="1">
          <mxGeometry y="92" width="190" height="26" as="geometry" />
        </mxCell>
        <mxCell id="Zf2B7JCEk5brwvJHuypl-105" value="+ UpdateCategory()&lt;div&gt;&lt;br&gt;&lt;/div&gt;" style="text;strokeColor=none;fillColor=none;align=left;verticalAlign=top;spacingLeft=4;spacingRight=4;overflow=hidden;rotatable=0;points=[[0,0.5],[1,0.5]];portConstraint=eastwest;whiteSpace=wrap;html=1;" parent="Zf2B7JCEk5brwvJHuypl-101" vertex="1">
          <mxGeometry y="118" width="190" height="26" as="geometry" />
        </mxCell>
        <mxCell id="Zf2B7JCEk5brwvJHuypl-106" value="+ DeleteCategory()&lt;div&gt;&lt;br&gt;&lt;/div&gt;" style="text;strokeColor=none;fillColor=none;align=left;verticalAlign=top;spacingLeft=4;spacingRight=4;overflow=hidden;rotatable=0;points=[[0,0.5],[1,0.5]];portConstraint=eastwest;whiteSpace=wrap;html=1;" parent="Zf2B7JCEk5brwvJHuypl-101" vertex="1">
          <mxGeometry y="144" width="190" height="26" as="geometry" />
        </mxCell>
        <mxCell id="Zf2B7JCEk5brwvJHuypl-107" value="&amp;lt;&amp;lt;Interface&amp;gt;&amp;gt;&lt;div&gt;IRecordRepository&lt;/div&gt;" style="swimlane;fontStyle=0;childLayout=stackLayout;horizontal=1;startSize=40;fillColor=none;horizontalStack=0;resizeParent=1;resizeParentMax=0;resizeLast=0;collapsible=1;marginBottom=0;whiteSpace=wrap;html=1;" parent="1" vertex="1">
          <mxGeometry x="1060" y="-40" width="200" height="170" as="geometry" />
        </mxCell>
        <mxCell id="Zf2B7JCEk5brwvJHuypl-108" value="+ GetAllRecordsByProjectId()&lt;div&gt;&lt;br&gt;&lt;/div&gt;" style="text;strokeColor=none;fillColor=none;align=left;verticalAlign=top;spacingLeft=4;spacingRight=4;overflow=hidden;rotatable=0;points=[[0,0.5],[1,0.5]];portConstraint=eastwest;whiteSpace=wrap;html=1;" parent="Zf2B7JCEk5brwvJHuypl-107" vertex="1">
          <mxGeometry y="40" width="200" height="26" as="geometry" />
        </mxCell>
        <mxCell id="Zf2B7JCEk5brwvJHuypl-109" value="+ GetAllRecordsByFilter()" style="text;strokeColor=none;fillColor=none;align=left;verticalAlign=top;spacingLeft=4;spacingRight=4;overflow=hidden;rotatable=0;points=[[0,0.5],[1,0.5]];portConstraint=eastwest;whiteSpace=wrap;html=1;" parent="Zf2B7JCEk5brwvJHuypl-107" vertex="1">
          <mxGeometry y="66" width="200" height="26" as="geometry" />
        </mxCell>
        <mxCell id="Zf2B7JCEk5brwvJHuypl-110" value="+ CreateRecord()" style="text;strokeColor=none;fillColor=none;align=left;verticalAlign=top;spacingLeft=4;spacingRight=4;overflow=hidden;rotatable=0;points=[[0,0.5],[1,0.5]];portConstraint=eastwest;whiteSpace=wrap;html=1;" parent="Zf2B7JCEk5brwvJHuypl-107" vertex="1">
          <mxGeometry y="92" width="200" height="26" as="geometry" />
        </mxCell>
        <mxCell id="Zf2B7JCEk5brwvJHuypl-111" value="+ UpdateRecord()&lt;div&gt;&lt;br&gt;&lt;/div&gt;" style="text;strokeColor=none;fillColor=none;align=left;verticalAlign=top;spacingLeft=4;spacingRight=4;overflow=hidden;rotatable=0;points=[[0,0.5],[1,0.5]];portConstraint=eastwest;whiteSpace=wrap;html=1;" parent="Zf2B7JCEk5brwvJHuypl-107" vertex="1">
          <mxGeometry y="118" width="200" height="26" as="geometry" />
        </mxCell>
        <mxCell id="Zf2B7JCEk5brwvJHuypl-112" value="+ DeleteRecord()&lt;div&gt;&lt;br&gt;&lt;/div&gt;" style="text;strokeColor=none;fillColor=none;align=left;verticalAlign=top;spacingLeft=4;spacingRight=4;overflow=hidden;rotatable=0;points=[[0,0.5],[1,0.5]];portConstraint=eastwest;whiteSpace=wrap;html=1;" parent="Zf2B7JCEk5brwvJHuypl-107" vertex="1">
          <mxGeometry y="144" width="200" height="26" as="geometry" />
        </mxCell>
        <mxCell id="Zf2B7JCEk5brwvJHuypl-113" value="&amp;lt;&amp;lt;Interface&amp;gt;&amp;gt;&lt;div&gt;IUserService&lt;/div&gt;" style="swimlane;fontStyle=0;childLayout=stackLayout;horizontal=1;startSize=40;fillColor=none;horizontalStack=0;resizeParent=1;resizeParentMax=0;resizeLast=0;collapsible=1;marginBottom=0;whiteSpace=wrap;html=1;" parent="1" vertex="1">
          <mxGeometry x="40" y="-600" width="140" height="92" as="geometry" />
        </mxCell>
        <mxCell id="Zf2B7JCEk5brwvJHuypl-114" value="+ GetUserById()" style="text;strokeColor=none;fillColor=none;align=left;verticalAlign=top;spacingLeft=4;spacingRight=4;overflow=hidden;rotatable=0;points=[[0,0.5],[1,0.5]];portConstraint=eastwest;whiteSpace=wrap;html=1;" parent="Zf2B7JCEk5brwvJHuypl-113" vertex="1">
          <mxGeometry y="40" width="140" height="26" as="geometry" />
        </mxCell>
        <mxCell id="Zf2B7JCEk5brwvJHuypl-118" value="+ GetUserByLogin()&lt;div&gt;&lt;br&gt;&lt;/div&gt;" style="text;strokeColor=none;fillColor=none;align=left;verticalAlign=top;spacingLeft=4;spacingRight=4;overflow=hidden;rotatable=0;points=[[0,0.5],[1,0.5]];portConstraint=eastwest;whiteSpace=wrap;html=1;" parent="Zf2B7JCEk5brwvJHuypl-113" vertex="1">
          <mxGeometry y="66" width="140" height="26" as="geometry" />
        </mxCell>
        <mxCell id="Zf2B7JCEk5brwvJHuypl-119" value="&amp;lt;&amp;lt;Interface&amp;gt;&amp;gt;&lt;div&gt;IProjectService&lt;/div&gt;" style="swimlane;fontStyle=0;childLayout=stackLayout;horizontal=1;startSize=40;fillColor=none;horizontalStack=0;resizeParent=1;resizeParentMax=0;resizeLast=0;collapsible=1;marginBottom=0;whiteSpace=wrap;html=1;" parent="1" vertex="1">
          <mxGeometry x="400" y="-600" width="140" height="118" as="geometry" />
        </mxCell>
        <mxCell id="Zf2B7JCEk5brwvJHuypl-120" value="+ GetProjectById()" style="text;strokeColor=none;fillColor=none;align=left;verticalAlign=top;spacingLeft=4;spacingRight=4;overflow=hidden;rotatable=0;points=[[0,0.5],[1,0.5]];portConstraint=eastwest;whiteSpace=wrap;html=1;" parent="Zf2B7JCEk5brwvJHuypl-119" vertex="1">
          <mxGeometry y="40" width="140" height="26" as="geometry" />
        </mxCell>
        <mxCell id="Zf2B7JCEk5brwvJHuypl-121" value="+ CreateProject()" style="text;strokeColor=none;fillColor=none;align=left;verticalAlign=top;spacingLeft=4;spacingRight=4;overflow=hidden;rotatable=0;points=[[0,0.5],[1,0.5]];portConstraint=eastwest;whiteSpace=wrap;html=1;" parent="Zf2B7JCEk5brwvJHuypl-119" vertex="1">
          <mxGeometry y="66" width="140" height="26" as="geometry" />
        </mxCell>
        <mxCell id="Zf2B7JCEk5brwvJHuypl-123" value="+ DeleteProject()&lt;div&gt;&lt;br&gt;&lt;/div&gt;" style="text;strokeColor=none;fillColor=none;align=left;verticalAlign=top;spacingLeft=4;spacingRight=4;overflow=hidden;rotatable=0;points=[[0,0.5],[1,0.5]];portConstraint=eastwest;whiteSpace=wrap;html=1;" parent="Zf2B7JCEk5brwvJHuypl-119" vertex="1">
          <mxGeometry y="92" width="140" height="26" as="geometry" />
        </mxCell>
        <mxCell id="Zf2B7JCEk5brwvJHuypl-124" value="&amp;lt;&amp;lt;Interface&amp;gt;&amp;gt;&lt;div&gt;IProjecMembertService&lt;/div&gt;" style="swimlane;fontStyle=0;childLayout=stackLayout;horizontal=1;startSize=40;fillColor=none;horizontalStack=0;resizeParent=1;resizeParentMax=0;resizeLast=0;collapsible=1;marginBottom=0;whiteSpace=wrap;html=1;" parent="1" vertex="1">
          <mxGeometry x="580" y="-600" width="210" height="170" as="geometry" />
        </mxCell>
        <mxCell id="Zf2B7JCEk5brwvJHuypl-129" value="+ DeleteProjectMember()&lt;div&gt;&lt;br&gt;&lt;/div&gt;" style="text;strokeColor=none;fillColor=none;align=left;verticalAlign=top;spacingLeft=4;spacingRight=4;overflow=hidden;rotatable=0;points=[[0,0.5],[1,0.5]];portConstraint=eastwest;whiteSpace=wrap;html=1;" parent="Zf2B7JCEk5brwvJHuypl-124" vertex="1">
          <mxGeometry y="40" width="210" height="26" as="geometry" />
        </mxCell>
        <mxCell id="Zf2B7JCEk5brwvJHuypl-125" value="+ GetAllProjectsByUserId()" style="text;strokeColor=none;fillColor=none;align=left;verticalAlign=top;spacingLeft=4;spacingRight=4;overflow=hidden;rotatable=0;points=[[0,0.5],[1,0.5]];portConstraint=eastwest;whiteSpace=wrap;html=1;" parent="Zf2B7JCEk5brwvJHuypl-124" vertex="1">
          <mxGeometry y="66" width="210" height="26" as="geometry" />
        </mxCell>
        <mxCell id="Zf2B7JCEk5brwvJHuypl-126" value="+ GetAllUsersByProjectId()" style="text;strokeColor=none;fillColor=none;align=left;verticalAlign=top;spacingLeft=4;spacingRight=4;overflow=hidden;rotatable=0;points=[[0,0.5],[1,0.5]];portConstraint=eastwest;whiteSpace=wrap;html=1;" parent="Zf2B7JCEk5brwvJHuypl-124" vertex="1">
          <mxGeometry y="92" width="210" height="26" as="geometry" />
        </mxCell>
        <mxCell id="Zf2B7JCEk5brwvJHuypl-127" value="+ InviteUserToProject()" style="text;strokeColor=none;fillColor=none;align=left;verticalAlign=top;spacingLeft=4;spacingRight=4;overflow=hidden;rotatable=0;points=[[0,0.5],[1,0.5]];portConstraint=eastwest;whiteSpace=wrap;html=1;" parent="Zf2B7JCEk5brwvJHuypl-124" vertex="1">
          <mxGeometry y="118" width="210" height="26" as="geometry" />
        </mxCell>
        <mxCell id="Zf2B7JCEk5brwvJHuypl-149" value="+ AcceptInviteToProject()" style="text;strokeColor=none;fillColor=none;align=left;verticalAlign=top;spacingLeft=4;spacingRight=4;overflow=hidden;rotatable=0;points=[[0,0.5],[1,0.5]];portConstraint=eastwest;whiteSpace=wrap;html=1;" parent="Zf2B7JCEk5brwvJHuypl-124" vertex="1">
          <mxGeometry y="144" width="210" height="26" as="geometry" />
        </mxCell>
        <mxCell id="Zf2B7JCEk5brwvJHuypl-130" value="&amp;lt;&amp;lt;Interface&amp;gt;&amp;gt;&lt;div&gt;ICategoryService&lt;/div&gt;" style="swimlane;fontStyle=0;childLayout=stackLayout;horizontal=1;startSize=40;fillColor=none;horizontalStack=0;resizeParent=1;resizeParentMax=0;resizeLast=0;collapsible=1;marginBottom=0;whiteSpace=wrap;html=1;" parent="1" vertex="1">
          <mxGeometry x="827" y="-600" width="190" height="92" as="geometry" />
        </mxCell>
        <mxCell id="Zf2B7JCEk5brwvJHuypl-131" value="+ GetAllCategoriesByProjectId()&lt;div&gt;&lt;br&gt;&lt;/div&gt;" style="text;strokeColor=none;fillColor=none;align=left;verticalAlign=top;spacingLeft=4;spacingRight=4;overflow=hidden;rotatable=0;points=[[0,0.5],[1,0.5]];portConstraint=eastwest;whiteSpace=wrap;html=1;" parent="Zf2B7JCEk5brwvJHuypl-130" vertex="1">
          <mxGeometry y="40" width="190" height="26" as="geometry" />
        </mxCell>
        <mxCell id="Zf2B7JCEk5brwvJHuypl-132" value="+ GetCategoryById()" style="text;strokeColor=none;fillColor=none;align=left;verticalAlign=top;spacingLeft=4;spacingRight=4;overflow=hidden;rotatable=0;points=[[0,0.5],[1,0.5]];portConstraint=eastwest;whiteSpace=wrap;html=1;" parent="Zf2B7JCEk5brwvJHuypl-130" vertex="1">
          <mxGeometry y="66" width="190" height="26" as="geometry" />
        </mxCell>
        <mxCell id="Zf2B7JCEk5brwvJHuypl-136" value="&amp;lt;&amp;lt;Interface&amp;gt;&amp;gt;&lt;div&gt;IRecordService&lt;/div&gt;" style="swimlane;fontStyle=0;childLayout=stackLayout;horizontal=1;startSize=40;fillColor=none;horizontalStack=0;resizeParent=1;resizeParentMax=0;resizeLast=0;collapsible=1;marginBottom=0;whiteSpace=wrap;html=1;" parent="1" vertex="1">
          <mxGeometry x="1060" y="-600" width="200" height="118" as="geometry" />
        </mxCell>
        <mxCell id="Zf2B7JCEk5brwvJHuypl-137" value="+ GetAllRecordsByProjectId()&lt;div&gt;&lt;br&gt;&lt;/div&gt;" style="text;strokeColor=none;fillColor=none;align=left;verticalAlign=top;spacingLeft=4;spacingRight=4;overflow=hidden;rotatable=0;points=[[0,0.5],[1,0.5]];portConstraint=eastwest;whiteSpace=wrap;html=1;" parent="Zf2B7JCEk5brwvJHuypl-136" vertex="1">
          <mxGeometry y="40" width="200" height="26" as="geometry" />
        </mxCell>
        <mxCell id="Zf2B7JCEk5brwvJHuypl-138" value="+ GetAllRecordsByFilter()" style="text;strokeColor=none;fillColor=none;align=left;verticalAlign=top;spacingLeft=4;spacingRight=4;overflow=hidden;rotatable=0;points=[[0,0.5],[1,0.5]];portConstraint=eastwest;whiteSpace=wrap;html=1;" parent="Zf2B7JCEk5brwvJHuypl-136" vertex="1">
          <mxGeometry y="66" width="200" height="26" as="geometry" />
        </mxCell>
        <mxCell id="Zf2B7JCEk5brwvJHuypl-139" value="+ CreateRecord()" style="text;strokeColor=none;fillColor=none;align=left;verticalAlign=top;spacingLeft=4;spacingRight=4;overflow=hidden;rotatable=0;points=[[0,0.5],[1,0.5]];portConstraint=eastwest;whiteSpace=wrap;html=1;" parent="Zf2B7JCEk5brwvJHuypl-136" vertex="1">
          <mxGeometry y="92" width="200" height="26" as="geometry" />
        </mxCell>
        <mxCell id="Zf2B7JCEk5brwvJHuypl-146" value="&amp;lt;&amp;lt;Interface&amp;gt;&amp;gt;&lt;div&gt;IAuthService&lt;/div&gt;" style="swimlane;fontStyle=0;childLayout=stackLayout;horizontal=1;startSize=40;fillColor=none;horizontalStack=0;resizeParent=1;resizeParentMax=0;resizeLast=0;collapsible=1;marginBottom=0;whiteSpace=wrap;html=1;" parent="1" vertex="1">
          <mxGeometry x="220" y="-600" width="140" height="92" as="geometry" />
        </mxCell>
        <mxCell id="Zf2B7JCEk5brwvJHuypl-147" value="+ Login()" style="text;strokeColor=none;fillColor=none;align=left;verticalAlign=top;spacingLeft=4;spacingRight=4;overflow=hidden;rotatable=0;points=[[0,0.5],[1,0.5]];portConstraint=eastwest;whiteSpace=wrap;html=1;" parent="Zf2B7JCEk5brwvJHuypl-146" vertex="1">
          <mxGeometry y="40" width="140" height="26" as="geometry" />
        </mxCell>
        <mxCell id="Zf2B7JCEk5brwvJHuypl-148" value="+Registrate()&lt;div&gt;&lt;br&gt;&lt;/div&gt;" style="text;strokeColor=none;fillColor=none;align=left;verticalAlign=top;spacingLeft=4;spacingRight=4;overflow=hidden;rotatable=0;points=[[0,0.5],[1,0.5]];portConstraint=eastwest;whiteSpace=wrap;html=1;" parent="Zf2B7JCEk5brwvJHuypl-146" vertex="1">
          <mxGeometry y="66" width="140" height="26" as="geometry" />
        </mxCell>
        <mxCell id="Zf2B7JCEk5brwvJHuypl-150" value="UserService" style="swimlane;fontStyle=0;childLayout=stackLayout;horizontal=1;startSize=40;fillColor=none;horizontalStack=0;resizeParent=1;resizeParentMax=0;resizeLast=0;collapsible=1;marginBottom=0;whiteSpace=wrap;html=1;" parent="1" vertex="1">
          <mxGeometry x="40" y="-320" width="140" height="92" as="geometry" />
        </mxCell>
        <mxCell id="Zf2B7JCEk5brwvJHuypl-151" value="+ GetUserById()" style="text;strokeColor=none;fillColor=none;align=left;verticalAlign=top;spacingLeft=4;spacingRight=4;overflow=hidden;rotatable=0;points=[[0,0.5],[1,0.5]];portConstraint=eastwest;whiteSpace=wrap;html=1;" parent="Zf2B7JCEk5brwvJHuypl-150" vertex="1">
          <mxGeometry y="40" width="140" height="26" as="geometry" />
        </mxCell>
        <mxCell id="Zf2B7JCEk5brwvJHuypl-152" value="+ GetUserByLogin()&lt;div&gt;&lt;br&gt;&lt;/div&gt;" style="text;strokeColor=none;fillColor=none;align=left;verticalAlign=top;spacingLeft=4;spacingRight=4;overflow=hidden;rotatable=0;points=[[0,0.5],[1,0.5]];portConstraint=eastwest;whiteSpace=wrap;html=1;" parent="Zf2B7JCEk5brwvJHuypl-150" vertex="1">
          <mxGeometry y="66" width="140" height="26" as="geometry" />
        </mxCell>
        <mxCell id="Zf2B7JCEk5brwvJHuypl-153" value="ProjectService" style="swimlane;fontStyle=0;childLayout=stackLayout;horizontal=1;startSize=40;fillColor=none;horizontalStack=0;resizeParent=1;resizeParentMax=0;resizeLast=0;collapsible=1;marginBottom=0;whiteSpace=wrap;html=1;" parent="1" vertex="1">
          <mxGeometry x="400" y="-320" width="140" height="118" as="geometry" />
        </mxCell>
        <mxCell id="Zf2B7JCEk5brwvJHuypl-154" value="+ GetProjectById()" style="text;strokeColor=none;fillColor=none;align=left;verticalAlign=top;spacingLeft=4;spacingRight=4;overflow=hidden;rotatable=0;points=[[0,0.5],[1,0.5]];portConstraint=eastwest;whiteSpace=wrap;html=1;" parent="Zf2B7JCEk5brwvJHuypl-153" vertex="1">
          <mxGeometry y="40" width="140" height="26" as="geometry" />
        </mxCell>
        <mxCell id="Zf2B7JCEk5brwvJHuypl-155" value="+ CreateProject()" style="text;strokeColor=none;fillColor=none;align=left;verticalAlign=top;spacingLeft=4;spacingRight=4;overflow=hidden;rotatable=0;points=[[0,0.5],[1,0.5]];portConstraint=eastwest;whiteSpace=wrap;html=1;" parent="Zf2B7JCEk5brwvJHuypl-153" vertex="1">
          <mxGeometry y="66" width="140" height="26" as="geometry" />
        </mxCell>
        <mxCell id="Zf2B7JCEk5brwvJHuypl-156" value="+ DeleteProject()&lt;div&gt;&lt;br&gt;&lt;/div&gt;" style="text;strokeColor=none;fillColor=none;align=left;verticalAlign=top;spacingLeft=4;spacingRight=4;overflow=hidden;rotatable=0;points=[[0,0.5],[1,0.5]];portConstraint=eastwest;whiteSpace=wrap;html=1;" parent="Zf2B7JCEk5brwvJHuypl-153" vertex="1">
          <mxGeometry y="92" width="140" height="26" as="geometry" />
        </mxCell>
        <mxCell id="Zf2B7JCEk5brwvJHuypl-157" value="ProjecMembertService" style="swimlane;fontStyle=0;childLayout=stackLayout;horizontal=1;startSize=40;fillColor=none;horizontalStack=0;resizeParent=1;resizeParentMax=0;resizeLast=0;collapsible=1;marginBottom=0;whiteSpace=wrap;html=1;" parent="1" vertex="1">
          <mxGeometry x="580" y="-320" width="210" height="170" as="geometry" />
        </mxCell>
        <mxCell id="Zf2B7JCEk5brwvJHuypl-158" value="+ GetAllProjectsByUserId()" style="text;strokeColor=none;fillColor=none;align=left;verticalAlign=top;spacingLeft=4;spacingRight=4;overflow=hidden;rotatable=0;points=[[0,0.5],[1,0.5]];portConstraint=eastwest;whiteSpace=wrap;html=1;" parent="Zf2B7JCEk5brwvJHuypl-157" vertex="1">
          <mxGeometry y="40" width="210" height="26" as="geometry" />
        </mxCell>
        <mxCell id="Zf2B7JCEk5brwvJHuypl-159" value="+ GetAllUsersByProjectId()" style="text;strokeColor=none;fillColor=none;align=left;verticalAlign=top;spacingLeft=4;spacingRight=4;overflow=hidden;rotatable=0;points=[[0,0.5],[1,0.5]];portConstraint=eastwest;whiteSpace=wrap;html=1;" parent="Zf2B7JCEk5brwvJHuypl-157" vertex="1">
          <mxGeometry y="66" width="210" height="26" as="geometry" />
        </mxCell>
        <mxCell id="Zf2B7JCEk5brwvJHuypl-160" value="+ InviteUserToProject()" style="text;strokeColor=none;fillColor=none;align=left;verticalAlign=top;spacingLeft=4;spacingRight=4;overflow=hidden;rotatable=0;points=[[0,0.5],[1,0.5]];portConstraint=eastwest;whiteSpace=wrap;html=1;" parent="Zf2B7JCEk5brwvJHuypl-157" vertex="1">
          <mxGeometry y="92" width="210" height="26" as="geometry" />
        </mxCell>
        <mxCell id="Zf2B7JCEk5brwvJHuypl-161" value="+ AcceptInviteToProject()" style="text;strokeColor=none;fillColor=none;align=left;verticalAlign=top;spacingLeft=4;spacingRight=4;overflow=hidden;rotatable=0;points=[[0,0.5],[1,0.5]];portConstraint=eastwest;whiteSpace=wrap;html=1;" parent="Zf2B7JCEk5brwvJHuypl-157" vertex="1">
          <mxGeometry y="118" width="210" height="26" as="geometry" />
        </mxCell>
        <mxCell id="Zf2B7JCEk5brwvJHuypl-162" value="+ DeleteProjectMember()&lt;div&gt;&lt;br&gt;&lt;/div&gt;" style="text;strokeColor=none;fillColor=none;align=left;verticalAlign=top;spacingLeft=4;spacingRight=4;overflow=hidden;rotatable=0;points=[[0,0.5],[1,0.5]];portConstraint=eastwest;whiteSpace=wrap;html=1;" parent="Zf2B7JCEk5brwvJHuypl-157" vertex="1">
          <mxGeometry y="144" width="210" height="26" as="geometry" />
        </mxCell>
        <mxCell id="Zf2B7JCEk5brwvJHuypl-163" value="CategoryService" style="swimlane;fontStyle=0;childLayout=stackLayout;horizontal=1;startSize=40;fillColor=none;horizontalStack=0;resizeParent=1;resizeParentMax=0;resizeLast=0;collapsible=1;marginBottom=0;whiteSpace=wrap;html=1;" parent="1" vertex="1">
          <mxGeometry x="827" y="-320" width="190" height="92" as="geometry" />
        </mxCell>
        <mxCell id="Zf2B7JCEk5brwvJHuypl-164" value="+ GetAllCategoriesByProjectId()&lt;div&gt;&lt;br&gt;&lt;/div&gt;" style="text;strokeColor=none;fillColor=none;align=left;verticalAlign=top;spacingLeft=4;spacingRight=4;overflow=hidden;rotatable=0;points=[[0,0.5],[1,0.5]];portConstraint=eastwest;whiteSpace=wrap;html=1;" parent="Zf2B7JCEk5brwvJHuypl-163" vertex="1">
          <mxGeometry y="40" width="190" height="26" as="geometry" />
        </mxCell>
        <mxCell id="Zf2B7JCEk5brwvJHuypl-165" value="+ GetCategoryById()" style="text;strokeColor=none;fillColor=none;align=left;verticalAlign=top;spacingLeft=4;spacingRight=4;overflow=hidden;rotatable=0;points=[[0,0.5],[1,0.5]];portConstraint=eastwest;whiteSpace=wrap;html=1;" parent="Zf2B7JCEk5brwvJHuypl-163" vertex="1">
          <mxGeometry y="66" width="190" height="26" as="geometry" />
        </mxCell>
        <mxCell id="Zf2B7JCEk5brwvJHuypl-166" value="RecordService" style="swimlane;fontStyle=0;childLayout=stackLayout;horizontal=1;startSize=40;fillColor=none;horizontalStack=0;resizeParent=1;resizeParentMax=0;resizeLast=0;collapsible=1;marginBottom=0;whiteSpace=wrap;html=1;" parent="1" vertex="1">
          <mxGeometry x="1060" y="-320" width="200" height="118" as="geometry" />
        </mxCell>
        <mxCell id="Zf2B7JCEk5brwvJHuypl-167" value="+ GetAllRecordsByProjectId()&lt;div&gt;&lt;br&gt;&lt;/div&gt;" style="text;strokeColor=none;fillColor=none;align=left;verticalAlign=top;spacingLeft=4;spacingRight=4;overflow=hidden;rotatable=0;points=[[0,0.5],[1,0.5]];portConstraint=eastwest;whiteSpace=wrap;html=1;" parent="Zf2B7JCEk5brwvJHuypl-166" vertex="1">
          <mxGeometry y="40" width="200" height="26" as="geometry" />
        </mxCell>
        <mxCell id="Zf2B7JCEk5brwvJHuypl-168" value="+ GetAllRecordsByFilter()" style="text;strokeColor=none;fillColor=none;align=left;verticalAlign=top;spacingLeft=4;spacingRight=4;overflow=hidden;rotatable=0;points=[[0,0.5],[1,0.5]];portConstraint=eastwest;whiteSpace=wrap;html=1;" parent="Zf2B7JCEk5brwvJHuypl-166" vertex="1">
          <mxGeometry y="66" width="200" height="26" as="geometry" />
        </mxCell>
        <mxCell id="Zf2B7JCEk5brwvJHuypl-169" value="+ CreateRecord()" style="text;strokeColor=none;fillColor=none;align=left;verticalAlign=top;spacingLeft=4;spacingRight=4;overflow=hidden;rotatable=0;points=[[0,0.5],[1,0.5]];portConstraint=eastwest;whiteSpace=wrap;html=1;" parent="Zf2B7JCEk5brwvJHuypl-166" vertex="1">
          <mxGeometry y="92" width="200" height="26" as="geometry" />
        </mxCell>
        <mxCell id="Zf2B7JCEk5brwvJHuypl-170" value="AuthService" style="swimlane;fontStyle=0;childLayout=stackLayout;horizontal=1;startSize=40;fillColor=none;horizontalStack=0;resizeParent=1;resizeParentMax=0;resizeLast=0;collapsible=1;marginBottom=0;whiteSpace=wrap;html=1;" parent="1" vertex="1">
          <mxGeometry x="220" y="-320" width="140" height="92" as="geometry" />
        </mxCell>
        <mxCell id="Zf2B7JCEk5brwvJHuypl-171" value="+ Login()" style="text;strokeColor=none;fillColor=none;align=left;verticalAlign=top;spacingLeft=4;spacingRight=4;overflow=hidden;rotatable=0;points=[[0,0.5],[1,0.5]];portConstraint=eastwest;whiteSpace=wrap;html=1;" parent="Zf2B7JCEk5brwvJHuypl-170" vertex="1">
          <mxGeometry y="40" width="140" height="26" as="geometry" />
        </mxCell>
        <mxCell id="Zf2B7JCEk5brwvJHuypl-172" value="+Registrate()&lt;div&gt;&lt;br&gt;&lt;/div&gt;" style="text;strokeColor=none;fillColor=none;align=left;verticalAlign=top;spacingLeft=4;spacingRight=4;overflow=hidden;rotatable=0;points=[[0,0.5],[1,0.5]];portConstraint=eastwest;whiteSpace=wrap;html=1;" parent="Zf2B7JCEk5brwvJHuypl-170" vertex="1">
          <mxGeometry y="66" width="140" height="26" as="geometry" />
        </mxCell>
        <mxCell id="Zf2B7JCEk5brwvJHuypl-178" value="" style="endArrow=block;dashed=1;endFill=0;endSize=12;html=1;rounded=0;exitX=0.5;exitY=0;exitDx=0;exitDy=0;entryX=0.488;entryY=0.955;entryDx=0;entryDy=0;entryPerimeter=0;" parent="1" source="Zf2B7JCEk5brwvJHuypl-36" target="Zf2B7JCEk5brwvJHuypl-89" edge="1">
          <mxGeometry width="160" relative="1" as="geometry">
            <mxPoint x="160" y="220" as="sourcePoint" />
            <mxPoint x="320" y="220" as="targetPoint" />
          </mxGeometry>
        </mxCell>
        <mxCell id="Zf2B7JCEk5brwvJHuypl-179" value="" style="endArrow=block;dashed=1;endFill=0;endSize=12;html=1;rounded=0;exitX=0.5;exitY=0;exitDx=0;exitDy=0;entryX=0.494;entryY=1.058;entryDx=0;entryDy=0;entryPerimeter=0;" parent="1" source="Zf2B7JCEk5brwvJHuypl-43" target="Zf2B7JCEk5brwvJHuypl-94" edge="1">
          <mxGeometry width="160" relative="1" as="geometry">
            <mxPoint x="322" y="321" as="sourcePoint" />
            <mxPoint x="320" y="120" as="targetPoint" />
          </mxGeometry>
        </mxCell>
        <mxCell id="Zf2B7JCEk5brwvJHuypl-180" value="" style="endArrow=block;dashed=1;endFill=0;endSize=12;html=1;rounded=0;exitX=0.5;exitY=0;exitDx=0;exitDy=0;" parent="1" source="Zf2B7JCEk5brwvJHuypl-50" target="Zf2B7JCEk5brwvJHuypl-100" edge="1">
          <mxGeometry width="160" relative="1" as="geometry">
            <mxPoint x="130" y="350" as="sourcePoint" />
            <mxPoint x="128" y="149" as="targetPoint" />
          </mxGeometry>
        </mxCell>
        <mxCell id="Zf2B7JCEk5brwvJHuypl-181" value="" style="endArrow=block;dashed=1;endFill=0;endSize=12;html=1;rounded=0;exitX=0.5;exitY=0;exitDx=0;exitDy=0;" parent="1" source="Zf2B7JCEk5brwvJHuypl-69" target="Zf2B7JCEk5brwvJHuypl-106" edge="1">
          <mxGeometry width="160" relative="1" as="geometry">
            <mxPoint x="140" y="360" as="sourcePoint" />
            <mxPoint x="138" y="159" as="targetPoint" />
          </mxGeometry>
        </mxCell>
        <mxCell id="Zf2B7JCEk5brwvJHuypl-182" value="" style="endArrow=block;dashed=1;endFill=0;endSize=12;html=1;rounded=0;exitX=0.5;exitY=0;exitDx=0;exitDy=0;" parent="1" source="Zf2B7JCEk5brwvJHuypl-76" target="Zf2B7JCEk5brwvJHuypl-112" edge="1">
          <mxGeometry width="160" relative="1" as="geometry">
            <mxPoint x="885" y="340" as="sourcePoint" />
            <mxPoint x="885" y="140" as="targetPoint" />
          </mxGeometry>
        </mxCell>
        <mxCell id="Zf2B7JCEk5brwvJHuypl-187" value="" style="endArrow=block;dashed=1;endFill=0;endSize=12;html=1;rounded=0;exitX=0.5;exitY=0;exitDx=0;exitDy=0;" parent="1" source="Zf2B7JCEk5brwvJHuypl-166" target="Zf2B7JCEk5brwvJHuypl-139" edge="1">
          <mxGeometry width="160" relative="1" as="geometry">
            <mxPoint x="1150" y="-348" as="sourcePoint" />
            <mxPoint x="1150" y="-510" as="targetPoint" />
          </mxGeometry>
        </mxCell>
        <mxCell id="Zf2B7JCEk5brwvJHuypl-188" value="" style="endArrow=block;dashed=1;endFill=0;endSize=12;html=1;rounded=0;exitX=0.5;exitY=0;exitDx=0;exitDy=0;" parent="1" source="Zf2B7JCEk5brwvJHuypl-163" target="Zf2B7JCEk5brwvJHuypl-132" edge="1">
          <mxGeometry width="160" relative="1" as="geometry">
            <mxPoint x="1180" y="-20" as="sourcePoint" />
            <mxPoint x="1180" y="-182" as="targetPoint" />
          </mxGeometry>
        </mxCell>
        <mxCell id="Zf2B7JCEk5brwvJHuypl-189" value="" style="endArrow=block;dashed=1;endFill=0;endSize=12;html=1;rounded=0;exitX=0.5;exitY=0;exitDx=0;exitDy=0;" parent="1" source="Zf2B7JCEk5brwvJHuypl-157" target="Zf2B7JCEk5brwvJHuypl-149" edge="1">
          <mxGeometry width="160" relative="1" as="geometry">
            <mxPoint x="932" y="-310" as="sourcePoint" />
            <mxPoint x="932" y="-498" as="targetPoint" />
          </mxGeometry>
        </mxCell>
        <mxCell id="Zf2B7JCEk5brwvJHuypl-190" value="" style="endArrow=block;dashed=1;endFill=0;endSize=12;html=1;rounded=0;exitX=0.5;exitY=0;exitDx=0;exitDy=0;" parent="1" source="Zf2B7JCEk5brwvJHuypl-153" target="Zf2B7JCEk5brwvJHuypl-123" edge="1">
          <mxGeometry width="160" relative="1" as="geometry">
            <mxPoint x="942" y="-300" as="sourcePoint" />
            <mxPoint x="942" y="-488" as="targetPoint" />
          </mxGeometry>
        </mxCell>
        <mxCell id="Zf2B7JCEk5brwvJHuypl-191" value="" style="endArrow=block;dashed=1;endFill=0;endSize=12;html=1;rounded=0;exitX=0.5;exitY=0;exitDx=0;exitDy=0;entryX=0.51;entryY=0.955;entryDx=0;entryDy=0;entryPerimeter=0;" parent="1" source="Zf2B7JCEk5brwvJHuypl-170" target="Zf2B7JCEk5brwvJHuypl-148" edge="1">
          <mxGeometry width="160" relative="1" as="geometry">
            <mxPoint x="480" y="-310" as="sourcePoint" />
            <mxPoint x="480" y="-472" as="targetPoint" />
          </mxGeometry>
        </mxCell>
        <mxCell id="Zf2B7JCEk5brwvJHuypl-192" value="" style="endArrow=block;dashed=1;endFill=0;endSize=12;html=1;rounded=0;exitX=0.5;exitY=0;exitDx=0;exitDy=0;" parent="1" source="Zf2B7JCEk5brwvJHuypl-150" target="Zf2B7JCEk5brwvJHuypl-118" edge="1">
          <mxGeometry width="160" relative="1" as="geometry">
            <mxPoint x="300" y="-310" as="sourcePoint" />
            <mxPoint x="301" y="-499" as="targetPoint" />
          </mxGeometry>
        </mxCell>
        <mxCell id="Zf2B7JCEk5brwvJHuypl-193" value="" style="endArrow=open;endSize=12;dashed=1;html=1;rounded=0;" parent="1" source="Zf2B7JCEk5brwvJHuypl-152" target="Zf2B7JCEk5brwvJHuypl-84" edge="1">
          <mxGeometry width="160" relative="1" as="geometry">
            <mxPoint x="290" y="-70" as="sourcePoint" />
            <mxPoint x="450" y="-70" as="targetPoint" />
          </mxGeometry>
        </mxCell>
        <mxCell id="Zf2B7JCEk5brwvJHuypl-194" value="" style="endArrow=open;endSize=12;dashed=1;html=1;rounded=0;exitX=0.477;exitY=0.967;exitDx=0;exitDy=0;exitPerimeter=0;entryX=0.5;entryY=0;entryDx=0;entryDy=0;" parent="1" source="Zf2B7JCEk5brwvJHuypl-172" target="Zf2B7JCEk5brwvJHuypl-84" edge="1">
          <mxGeometry width="160" relative="1" as="geometry">
            <mxPoint x="120" y="-218" as="sourcePoint" />
            <mxPoint x="110" y="-40" as="targetPoint" />
            <Array as="points">
              <mxPoint x="287" y="-120" />
              <mxPoint x="110" y="-120" />
            </Array>
          </mxGeometry>
        </mxCell>
        <mxCell id="Zf2B7JCEk5brwvJHuypl-195" value="" style="endArrow=open;endSize=12;dashed=1;html=1;rounded=0;exitX=0.564;exitY=0.923;exitDx=0;exitDy=0;exitPerimeter=0;entryX=0.557;entryY=0.007;entryDx=0;entryDy=0;entryPerimeter=0;" parent="1" source="Zf2B7JCEk5brwvJHuypl-156" target="Zf2B7JCEk5brwvJHuypl-90" edge="1">
          <mxGeometry width="160" relative="1" as="geometry">
            <mxPoint x="130" y="-208" as="sourcePoint" />
            <mxPoint x="130" y="-20" as="targetPoint" />
            <Array as="points" />
          </mxGeometry>
        </mxCell>
        <mxCell id="Zf2B7JCEk5brwvJHuypl-196" value="" style="endArrow=open;endSize=12;dashed=1;html=1;rounded=0;entryX=0.341;entryY=-0.013;entryDx=0;entryDy=0;entryPerimeter=0;exitX=0.229;exitY=1.077;exitDx=0;exitDy=0;exitPerimeter=0;" parent="1" source="Zf2B7JCEk5brwvJHuypl-156" target="Zf2B7JCEk5brwvJHuypl-84" edge="1">
          <mxGeometry width="160" relative="1" as="geometry">
            <mxPoint x="460" y="-200" as="sourcePoint" />
            <mxPoint x="140" y="-10" as="targetPoint" />
            <Array as="points">
              <mxPoint x="432" y="-150" />
              <mxPoint x="290" y="-150" />
              <mxPoint x="88" y="-150" />
            </Array>
          </mxGeometry>
        </mxCell>
        <mxCell id="Zf2B7JCEk5brwvJHuypl-197" value="" style="endArrow=open;endSize=12;dashed=1;html=1;rounded=0;entryX=0.538;entryY=-0.018;entryDx=0;entryDy=0;entryPerimeter=0;" parent="1" target="Zf2B7JCEk5brwvJHuypl-95" edge="1">
          <mxGeometry width="160" relative="1" as="geometry">
            <mxPoint x="460" y="-200" as="sourcePoint" />
            <mxPoint x="150" as="targetPoint" />
            <Array as="points">
              <mxPoint x="460" y="-90" />
              <mxPoint x="680" y="-90" />
            </Array>
          </mxGeometry>
        </mxCell>
        <mxCell id="Zf2B7JCEk5brwvJHuypl-198" value="" style="endArrow=open;endSize=12;dashed=1;html=1;rounded=0;exitX=0.576;exitY=1;exitDx=0;exitDy=0;exitPerimeter=0;entryX=0.619;entryY=-0.012;entryDx=0;entryDy=0;entryPerimeter=0;" parent="1" source="Zf2B7JCEk5brwvJHuypl-162" target="Zf2B7JCEk5brwvJHuypl-95" edge="1">
          <mxGeometry width="160" relative="1" as="geometry">
            <mxPoint x="160" y="-178" as="sourcePoint" />
            <mxPoint x="160" y="10" as="targetPoint" />
            <Array as="points">
              <mxPoint x="700" y="-80" />
            </Array>
          </mxGeometry>
        </mxCell>
        <mxCell id="Zf2B7JCEk5brwvJHuypl-199" value="" style="endArrow=open;endSize=12;dashed=1;html=1;rounded=0;exitX=0.319;exitY=1.038;exitDx=0;exitDy=0;exitPerimeter=0;entryX=0.634;entryY=-0.007;entryDx=0;entryDy=0;entryPerimeter=0;" parent="1" source="Zf2B7JCEk5brwvJHuypl-162" target="Zf2B7JCEk5brwvJHuypl-84" edge="1">
          <mxGeometry width="160" relative="1" as="geometry">
            <mxPoint x="670" y="-149" as="sourcePoint" />
            <mxPoint x="110" y="-40" as="targetPoint" />
            <Array as="points">
              <mxPoint x="647" y="-130" />
              <mxPoint x="129" y="-130" />
            </Array>
          </mxGeometry>
        </mxCell>
        <mxCell id="Zf2B7JCEk5brwvJHuypl-200" value="" style="endArrow=open;endSize=12;dashed=1;html=1;rounded=0;exitX=0.413;exitY=1.081;exitDx=0;exitDy=0;exitPerimeter=0;entryX=0.857;entryY=0;entryDx=0;entryDy=0;entryPerimeter=0;" parent="1" source="Zf2B7JCEk5brwvJHuypl-162" target="Zf2B7JCEk5brwvJHuypl-90" edge="1">
          <mxGeometry width="160" relative="1" as="geometry">
            <mxPoint x="180" y="-158" as="sourcePoint" />
            <mxPoint x="180" y="30" as="targetPoint" />
            <Array as="points">
              <mxPoint x="667" y="-70" />
              <mxPoint x="520" y="-70" />
            </Array>
          </mxGeometry>
        </mxCell>
        <mxCell id="Zf2B7JCEk5brwvJHuypl-201" value="" style="endArrow=open;endSize=12;dashed=1;html=1;rounded=0;exitX=0.49;exitY=1.04;exitDx=0;exitDy=0;exitPerimeter=0;entryX=0.5;entryY=0;entryDx=0;entryDy=0;" parent="1" source="Zf2B7JCEk5brwvJHuypl-165" target="Zf2B7JCEk5brwvJHuypl-101" edge="1">
          <mxGeometry width="160" relative="1" as="geometry">
            <mxPoint x="950" y="-188" as="sourcePoint" />
            <mxPoint x="950" as="targetPoint" />
          </mxGeometry>
        </mxCell>
        <mxCell id="Zf2B7JCEk5brwvJHuypl-202" value="" style="endArrow=open;endSize=12;dashed=1;html=1;rounded=0;exitX=0.491;exitY=1.029;exitDx=0;exitDy=0;exitPerimeter=0;entryX=0.5;entryY=0;entryDx=0;entryDy=0;" parent="1" source="Zf2B7JCEk5brwvJHuypl-169" target="Zf2B7JCEk5brwvJHuypl-107" edge="1">
          <mxGeometry width="160" relative="1" as="geometry">
            <mxPoint x="930" y="-217" as="sourcePoint" />
            <mxPoint x="933" y="-30" as="targetPoint" />
          </mxGeometry>
        </mxCell>
        <mxCell id="Zf2B7JCEk5brwvJHuypl-204" value="" style="endArrow=open;endSize=12;dashed=1;html=1;rounded=0;exitX=0.002;exitY=-0.004;exitDx=0;exitDy=0;exitPerimeter=0;entryX=0.5;entryY=0;entryDx=0;entryDy=0;" parent="1" source="Zf2B7JCEk5brwvJHuypl-114" target="Zf2B7JCEk5brwvJHuypl-1" edge="1">
          <mxGeometry width="160" relative="1" as="geometry">
            <mxPoint x="20" y="-560" as="sourcePoint" />
            <mxPoint x="20" y="570" as="targetPoint" />
            <Array as="points">
              <mxPoint x="20" y="-560" />
              <mxPoint x="20" y="570" />
              <mxPoint x="110" y="570" />
            </Array>
          </mxGeometry>
        </mxCell>
        <mxCell id="Zf2B7JCEk5brwvJHuypl-206" value="" style="endArrow=open;endSize=12;dashed=1;html=1;rounded=0;exitX=0;exitY=0.5;exitDx=0;exitDy=0;entryX=0.5;entryY=0;entryDx=0;entryDy=0;" parent="1" source="Zf2B7JCEk5brwvJHuypl-120" target="Zf2B7JCEk5brwvJHuypl-8" edge="1">
          <mxGeometry width="160" relative="1" as="geometry">
            <mxPoint x="130" y="-208" as="sourcePoint" />
            <mxPoint x="130" y="-20" as="targetPoint" />
            <Array as="points">
              <mxPoint x="380" y="-547" />
              <mxPoint x="380" y="560" />
              <mxPoint x="320" y="560" />
            </Array>
          </mxGeometry>
        </mxCell>
        <mxCell id="Zf2B7JCEk5brwvJHuypl-207" value="" style="endArrow=open;endSize=12;dashed=1;html=1;rounded=0;exitX=1.002;exitY=0.13;exitDx=0;exitDy=0;exitPerimeter=0;entryX=0.5;entryY=0;entryDx=0;entryDy=0;" parent="1" source="Zf2B7JCEk5brwvJHuypl-124" target="Zf2B7JCEk5brwvJHuypl-13" edge="1">
          <mxGeometry width="160" relative="1" as="geometry">
            <mxPoint x="140" y="-198" as="sourcePoint" />
            <mxPoint x="140" y="-10" as="targetPoint" />
            <Array as="points">
              <mxPoint x="810" y="-580" />
              <mxPoint x="810" y="560" />
              <mxPoint x="585" y="560" />
            </Array>
          </mxGeometry>
        </mxCell>
        <mxCell id="Zf2B7JCEk5brwvJHuypl-208" value="" style="endArrow=open;endSize=12;dashed=1;html=1;rounded=0;exitX=1;exitY=0.25;exitDx=0;exitDy=0;entryX=0.5;entryY=0;entryDx=0;entryDy=0;" parent="1" source="Zf2B7JCEk5brwvJHuypl-130" target="Zf2B7JCEk5brwvJHuypl-30" edge="1">
          <mxGeometry width="160" relative="1" as="geometry">
            <mxPoint x="687" y="-139" as="sourcePoint" />
            <mxPoint x="830" y="210" as="targetPoint" />
            <Array as="points">
              <mxPoint x="1040" y="-577" />
              <mxPoint x="1040" y="560" />
              <mxPoint x="875" y="560" />
            </Array>
          </mxGeometry>
        </mxCell>
        <mxCell id="Zf2B7JCEk5brwvJHuypl-209" value="" style="endArrow=open;endSize=12;dashed=1;html=1;rounded=0;exitX=1;exitY=0.5;exitDx=0;exitDy=0;entryX=0.5;entryY=0;entryDx=0;entryDy=0;" parent="1" source="Zf2B7JCEk5brwvJHuypl-137" target="Zf2B7JCEk5brwvJHuypl-23" edge="1">
          <mxGeometry width="160" relative="1" as="geometry">
            <mxPoint x="1291.111111111111" y="-430" as="sourcePoint" />
            <mxPoint x="1300" y="180" as="targetPoint" />
            <Array as="points">
              <mxPoint x="1300" y="-550" />
              <mxPoint x="1300" y="560" />
              <mxPoint x="1160" y="560" />
            </Array>
          </mxGeometry>
        </mxCell>
        <mxCell id="Zf2B7JCEk5brwvJHuypl-210" value="" style="endArrow=none;dashed=1;html=1;rounded=0;entryX=1;entryY=0.5;entryDx=0;entryDy=0;" parent="1" target="Zf2B7JCEk5brwvJHuypl-109" edge="1">
          <mxGeometry width="50" height="50" relative="1" as="geometry">
            <mxPoint x="1300" y="40" as="sourcePoint" />
            <mxPoint x="1090" y="70" as="targetPoint" />
          </mxGeometry>
        </mxCell>
        <mxCell id="Zf2B7JCEk5brwvJHuypl-211" value="" style="endArrow=none;dashed=1;html=1;rounded=0;entryX=1;entryY=0.5;entryDx=0;entryDy=0;" parent="1" target="Zf2B7JCEk5brwvJHuypl-103" edge="1">
          <mxGeometry width="50" height="50" relative="1" as="geometry">
            <mxPoint x="1040" y="40" as="sourcePoint" />
            <mxPoint x="800" y="40" as="targetPoint" />
          </mxGeometry>
        </mxCell>
        <mxCell id="Zf2B7JCEk5brwvJHuypl-212" value="" style="endArrow=none;dashed=1;html=1;rounded=0;exitX=1;exitY=0.5;exitDx=0;exitDy=0;" parent="1" source="Zf2B7JCEk5brwvJHuypl-97" edge="1">
          <mxGeometry width="50" height="50" relative="1" as="geometry">
            <mxPoint x="470" y="90" as="sourcePoint" />
            <mxPoint x="810" y="40" as="targetPoint" />
          </mxGeometry>
        </mxCell>
        <mxCell id="Zf2B7JCEk5brwvJHuypl-213" value="" style="endArrow=none;dashed=1;html=1;rounded=0;entryX=0;entryY=0.5;entryDx=0;entryDy=0;" parent="1" target="Zf2B7JCEk5brwvJHuypl-92" edge="1">
          <mxGeometry width="50" height="50" relative="1" as="geometry">
            <mxPoint x="380" y="40" as="sourcePoint" />
            <mxPoint x="360" y="40" as="targetPoint" />
          </mxGeometry>
        </mxCell>
        <mxCell id="Zf2B7JCEk5brwvJHuypl-214" value="" style="endArrow=none;dashed=1;html=1;rounded=0;entryX=0;entryY=0.5;entryDx=0;entryDy=0;" parent="1" target="Zf2B7JCEk5brwvJHuypl-86" edge="1">
          <mxGeometry width="50" height="50" relative="1" as="geometry">
            <mxPoint x="20" y="39" as="sourcePoint" />
            <mxPoint x="140" y="40" as="targetPoint" />
          </mxGeometry>
        </mxCell>
        <mxCell id="Zf2B7JCEk5brwvJHuypl-215" value="Entity" style="line;strokeWidth=1;fillColor=none;align=left;verticalAlign=middle;spacingTop=-1;spacingLeft=3;spacingRight=3;rotatable=0;labelPosition=right;points=[];portConstraint=eastwest;strokeColor=inherit;fontSize=13;" parent="1" vertex="1">
          <mxGeometry y="520" width="1330" height="8" as="geometry" />
        </mxCell>
        <mxCell id="Zf2B7JCEk5brwvJHuypl-224" value="Database Access" style="line;strokeWidth=1;fillColor=none;align=left;verticalAlign=middle;spacingTop=-1;spacingLeft=3;spacingRight=3;rotatable=0;labelPosition=right;points=[];portConstraint=eastwest;strokeColor=inherit;" parent="1" vertex="1">
          <mxGeometry y="232" width="1360" height="8" as="geometry" />
        </mxCell>
        <mxCell id="Zf2B7JCEk5brwvJHuypl-225" value="Business Logic" style="line;strokeWidth=1;fillColor=none;align=left;verticalAlign=middle;spacingTop=-1;spacingLeft=3;spacingRight=3;rotatable=0;labelPosition=right;points=[];portConstraint=eastwest;strokeColor=inherit;" parent="1" vertex="1">
          <mxGeometry x="20" y="-650" width="1310" height="8" as="geometry" />
        </mxCell>
      </root>
    </mxGraphModel>
  </diagram>
</mxfile>
